<svg xmlns="http://www.w3.org/2000/svg" viewBox="0 0 432 432"><g id="Layer_12" data-name="Layer 12"><path d="M166.07,169.57c0-1.78,1.67-2.49,3.7-2.7l4-.41v-.53c0-1.59-1.24-2.53-3.1-2.53a3.63,3.63,0,0,0-3.64,2.16l-.57-.28a4.35,4.35,0,0,1,4.21-2.44c2.21,0,3.7,1.14,3.7,3.09v4.53c0,.9.82,1.06,1.62.85v.58c-1.21.19-2.22-.17-2.22-1.4v-.6a4.83,4.83,0,0,1-4.39,2.17C167.55,172.06,166.07,171.21,166.07,169.57ZM173.8,167l-4,.43c-1.59.17-3.11.63-3.11,2.15,0,1.23,1.15,2,2.77,2,2.15,0,4.35-1.06,4.35-3.4Z"/><path d="M179.92,171.89h-.61V159.63h.61v5.74a4.83,4.83,0,0,1,9.07,2.08,4.55,4.55,0,0,1-4.85,4.61,4.6,4.6,0,0,1-4.22-2.53Zm0-4.39a4.05,4.05,0,0,0,4.23,4,4.05,4.05,0,1,0,0-8.1,4.06,4.06,0,0,0-4.23,4Z"/><path d="M201.94,167.45a4.85,4.85,0,1,1-4.85-4.61A4.55,4.55,0,0,1,201.94,167.45Zm-.61,0a4.23,4.23,0,1,0-4.24,4.05A4,4,0,0,0,201.33,167.45Z"/><path d="M213.92,171.89h-.61v-2.22a4,4,0,0,1-3.78,2.39c-2.51,0-3.77-1.65-3.77-3.93V163h.61v5.07c0,1.9,1,3.4,3.2,3.4a3.73,3.73,0,0,0,3.74-3.81V163h.61Z"/><path d="M219.2,163.54h-2V163h2v-2.56h.62V163h4.46v.53h-4.46v6c0,1.42,1,1.9,2.34,1.9a6.17,6.17,0,0,0,2.27-.46l.15.54a6.8,6.8,0,0,1-2.44.48c-1.83,0-2.94-.72-2.94-2.44Z"/><path d="M171,181.68a4.39,4.39,0,0,1,4.6,3.37l-.6.19a3.76,3.76,0,0,0-4-3,4,4,0,1,0,0,8.09,3.76,3.76,0,0,0,4-3l.6.19a4.39,4.39,0,0,1-4.6,3.37,4.62,4.62,0,1,1,0-9.23Z"/><path d="M188.45,186.29a4.85,4.85,0,1,1-4.85-4.61A4.56,4.56,0,0,1,188.45,186.29Zm-.62,0a4.23,4.23,0,1,0-4.23,4.05A4,4,0,0,0,187.83,186.29Z"/><path d="M192.35,181.85H193v2.28a4.29,4.29,0,0,1,3.88-2.45c2.51,0,3.77,1.66,3.77,3.93v5.12H200v-5.07c0-1.89-1-3.4-3.2-3.4a3.82,3.82,0,0,0-3.84,3.81v4.66h-.61Z"/><path d="M205.81,182.38h-2v-.53h2v-2.56h.61v2.56h4.46v.53h-4.46v6c0,1.42,1,1.9,2.34,1.9a6,6,0,0,0,2.27-.46l.16.55a7.06,7.06,0,0,1-2.44.47c-1.83,0-2.94-.71-2.94-2.44Z"/><path d="M213.84,188.41c0-1.77,1.67-2.49,3.71-2.7l4-.41v-.53c0-1.58-1.25-2.52-3.11-2.52a3.63,3.63,0,0,0-3.64,2.15l-.56-.27a4.33,4.33,0,0,1,4.2-2.45c2.22,0,3.7,1.15,3.7,3.09v4.53c0,.91.82,1.06,1.63.85v.58c-1.22.19-2.22-.17-2.22-1.4v-.59a4.88,4.88,0,0,1-4.39,2.17C215.33,190.91,213.84,190.05,213.84,188.41Zm7.74-2.58-4,.43c-1.58.17-3.1.63-3.1,2.15,0,1.23,1.14,2,2.76,2,2.15,0,4.36-1.06,4.36-3.4Z"/><path d="M231.2,181.68a4.39,4.39,0,0,1,4.59,3.37l-.6.19a3.74,3.74,0,0,0-4-3,4,4,0,1,0,0,8.09,3.74,3.74,0,0,0,4-3l.6.19a4.39,4.39,0,0,1-4.59,3.37,4.62,4.62,0,1,1,0-9.23Z"/><path d="M240.26,182.38h-2v-.53h2v-2.56h.61v2.56h4.46v.53h-4.46v6c0,1.42,1,1.9,2.34,1.9a6,6,0,0,0,2.27-.46l.16.55a7.12,7.12,0,0,1-2.45.47c-1.82,0-2.93-.71-2.93-2.44Z"/></g></svg>