<svg xmlns="http://www.w3.org/2000/svg" viewBox="0 0 84.3 21.53"><g id="Layer_2" data-name="Layer 2"><g id="Layer_11" data-name="Layer 11"><path d="M16.66,14.71h7.2v6.82h-7.2Z"/><path d="M32.91,14.71h7.2v6.82h-7.2Z"/><path d="M49.16,14.71h7.2v6.82h-7.2Z"/><path d="M72.61,11.69C75.18,10.42,77,9.54,77,8c0-1.21-.74-2.33-3.46-2.33a5.19,5.19,0,0,0-5.16,4.16L62.21,8.62C62.69,4.31,66.88,0,73.88,0c5.64,0,10,2.77,10,7.23,0,3.52-2.51,5.76-6.62,7.5l-2.74,1.19H84.3v5.61H62.77v-5Z"/><path d="M0,14.71H7.2v6.82H0Z"/></g></g></svg>