<svg xmlns="http://www.w3.org/2000/svg" viewBox="0 0 24.15 21.91"><g id="Layer_2" data-name="Layer 2"><g id="Layer_11" data-name="Layer 11"><path d="M0,16.36l6.08-2.84c.86,1.66,3.46,2.84,6.5,2.84,2,0,4.22-.41,4.22-1.54s-1.92-1.42-4.43-1.42h-4v-5h3.84c2.51,0,4.22-.3,4.22-1.39,0-.86-1.6-1.39-4-1.39-3,0-5.14,1.27-5.88,2.45L.86,5.26C2.57,2.13,7.47,0,12.9,0c6.77,0,10.87,2.75,10.87,6.41a4.74,4.74,0,0,1-3.42,4.37c2.36.88,3.8,2.3,3.8,4.69,0,3.6-4.4,6.44-11.69,6.44C5.76,21.91,1.83,19.55,0,16.36Z"/></g></g></svg>