<svg xmlns="http://www.w3.org/2000/svg" viewBox="0 0 135.82 21.56"><g id="Layer_2" data-name="Layer 2"><g id="Layer_11" data-name="Layer 11"><path d="M67.11,14.38h7.21V21.2H67.11Z"/><path d="M83.36,14.38h7.21V21.2H83.36Z"/><path d="M99.61,14.38h7.21V21.2H99.61Z"/><path d="M114.12,12.19,115.68,0h18.75V5.61H120.79l-.32,2.18a12,12,0,0,1,5.22-1.12c6.14,0,10.13,2.69,10.13,7.24s-5,7.65-11.13,7.65c-5.23,0-10.19-1.81-11.87-5.7L119,13.35c1,1.62,2.86,2.71,5.79,2.71,2.36,0,4.46-.65,4.46-2.06s-1.69-2.19-4.58-2.19A9.88,9.88,0,0,0,120,12.9Z"/><path d="M18,14.38h7.2V21.2H18Z"/><path d="M34.21,14.38h7.2V21.2h-7.2Z"/><path d="M50.46,14.38h7.2V21.2h-7.2Z"/><path d="M0,14.38H7.2V21.2H0Z"/></g></g></svg>