<svg xmlns="http://www.w3.org/2000/svg" viewBox="0 0 100.96 21.91"><g id="Layer_2" data-name="Layer 2"><g id="Layer_11" data-name="Layer 11"><path d="M32.91,14.73h7.2v6.83h-7.2Z"/><path d="M49.16,14.73h7.2v6.83h-7.2Z"/><path d="M65.4,14.73h7.21v6.83H65.4Z"/><path d="M76.81,16.36l6.08-2.84c.86,1.66,3.46,2.84,6.5,2.84,2,0,4.22-.41,4.22-1.54s-1.92-1.42-4.43-1.42H85.13v-5H89c2.51,0,4.23-.3,4.23-1.39,0-.86-1.6-1.39-4-1.39-3,0-5.14,1.27-5.88,2.45l-5.7-2.8C79.38,2.13,84.28,0,89.71,0c6.76,0,10.87,2.75,10.87,6.41a4.75,4.75,0,0,1-3.43,4.37c2.36.88,3.81,2.3,3.81,4.69,0,3.6-4.4,6.44-11.69,6.44C82.57,21.91,78.64,19.55,76.81,16.36Z"/><path d="M16.25,14.73h7.2v6.82h-7.2Z"/><path d="M0,14.73H7.2v6.82H0Z"/></g></g></svg>