<svg xmlns="http://www.w3.org/2000/svg" viewBox="0 0 48.54 44.52"><g id="Layer_2" data-name="Layer 2"><g id="Layer_10" data-name="Layer 10"><path d="M39.54,15.48c-3.48-3.18-7.8-4.56-13-4.56-8.22,0-12.54,3.54-13.2,6.84,3.42-2,8.28-3.24,13.86-3.24,12.6,0,21.36,6.18,21.36,14.52,0,9.36-9.36,15.48-23.88,15.48C9.3,44.52,0,35.88,0,23.28,0,9.36,10.32,0,26.64,0,37.08,0,44.16,3.18,48.06,7.62Zm-15,9.3c-6,0-10.32,1.62-10.32,4.56s4.32,4.56,10.32,4.56,10.38-1.62,10.38-4.56S30.6,24.78,24.54,24.78Z"/></g></g></svg>