<svg xmlns="http://www.w3.org/2000/svg" viewBox="0 0 432 432"><defs><style>.cls-1,.cls-2{fill:#101010;}.cls-2{stroke:#fff;stroke-miterlimit:10;}</style></defs><g id="Layer_10" data-name="Layer 10"><path class="cls-1" d="M211.28,175.43A68.87,68.87,0,0,0,202,177a61.93,61.93,0,0,0-8,2.49,57,57,0,0,0-10.5,5.38,52.39,52.39,0,0,0-8.89,7.38,53.2,53.2,0,0,0-11.27,18.63,57.69,57.69,0,0,0-2.91,13.24,61.42,61.42,0,0,0,.11,13.25,60.08,60.08,0,0,0,1,6.43c.46,2.16,1,4,1.45,5.5l-41.33-.44q.38-55.4.74-110.8h40v18.53a46.39,46.39,0,0,1,14-13.13c21.31-12.76,45.65-2.76,49.1-1.28v33.15A77,77,0,0,0,211.28,175.43Z"/><path class="cls-2" d="M223.62,327.66c-27.18,0-53.09-8.43-63.41-26.75L192,283.84c6.32,9.06,17.27,13.69,32,13.69,15.8,0,33.28-6.74,33.28-23v-2.73c-6.95,7.37-20.22,13.48-37.92,13.48-37.71,0-59.4-24.23-59.4-54.77s21.69-55.62,59.4-55.62c17.7,0,31,6.32,37.92,13.49v-11h40v93.11C297.34,308.28,266,327.66,223.62,327.66Zm5.26-122.18c-16,0-29.49,8.85-29.49,25.07,0,16,13.48,25.06,29.49,25.06,16.22,0,29.71-9.48,29.71-24.85v-.64C258.59,215,245.1,205.48,228.88,205.48Z"/></g></svg>